<?xml version="1.0" encoding="utf-8"?>
<!-- Generator: Adobe Illustrator 14.0.0, SVG Export Plug-In . SVG Version: 6.00 Build 43363)  -->
<!DOCTYPE svg PUBLIC "-//W3C//DTD SVG 1.1//EN" "http://www.w3.org/Graphics/SVG/1.1/DTD/svg11.dtd">
<svg version="1.1" id="Calque_1" xmlns="http://www.w3.org/2000/svg" xmlns:xlink="http://www.w3.org/1999/xlink" x="0px" y="0px"
	 width="30px" height="30px" viewBox="0 0 30 30" enable-background="new 0 0 30 30" xml:space="preserve">
<g>
	<path d="M23.443,19.146c-0.283-0.41-0.734-0.639-1.197-0.648l0.822-5.788c0.084-0.586-0.186-1.165-0.688-1.48
		c-0.5-0.313-1.139-0.308-1.631,0.021l-1.875,1.25c-0.688,0.46-0.875,1.391-0.416,2.079c0.283,0.425,0.744,0.657,1.217,0.668
		l-0.828,5.831c-0.084,0.591,0.189,1.174,0.695,1.485c0.242,0.149,0.518,0.226,0.789,0.226c0.299,0,0.596-0.089,0.852-0.265
		l1.875-1.293C23.742,20.763,23.914,19.827,23.443,19.146z"/>
	<circle cx="22.189" cy="8.247" r="1.5"/>
	<path d="M13.995,6.637c-0.004-0.007-0.012-0.014-0.018-0.021c-0.029-0.042-0.064-0.078-0.1-0.116
		c-0.031-0.033-0.059-0.069-0.092-0.102c-0.039-0.036-0.084-0.065-0.127-0.099c-0.035-0.025-0.066-0.055-0.104-0.076
		c-0.047-0.029-0.096-0.05-0.145-0.073c-0.039-0.02-0.078-0.041-0.119-0.057c-0.045-0.018-0.094-0.026-0.141-0.04
		c-0.043-0.011-0.082-0.027-0.127-0.035c-0.008-0.001-0.018,0-0.023-0.002c-0.01-0.001-0.016-0.005-0.023-0.006
		c-0.039-0.005-0.076-0.002-0.115-0.004c-0.054-0.003-0.109-0.007-0.161-0.005c-0.043,0.002-0.084,0.01-0.125,0.016
		c-0.057,0.007-0.115,0.014-0.172,0.027c-0.033,0.009-0.066,0.021-0.1,0.032c-0.061,0.021-0.119,0.039-0.178,0.065
		c-0.029,0.014-0.057,0.031-0.084,0.047c-0.047,0.026-0.094,0.048-0.139,0.078l-4.053,2.84c-0.68,0.477-0.844,1.411-0.369,2.089
		c0.477,0.681,1.412,0.844,2.09,0.368l1.221-0.854l-1.109,7.813l-0.66-0.942c-0.477-0.681-1.41-0.845-2.09-0.367
		c-0.68,0.476-0.844,1.409-0.367,2.089l2.838,4.055c0.006,0.009,0.012,0.015,0.018,0.021c0.029,0.042,0.064,0.077,0.1,0.115
		c0.031,0.033,0.061,0.07,0.094,0.104c0.037,0.034,0.08,0.062,0.121,0.096c0.037,0.025,0.068,0.058,0.107,0.08
		c0.043,0.026,0.092,0.047,0.139,0.069c0.043,0.021,0.082,0.043,0.125,0.06c0.045,0.019,0.092,0.025,0.139,0.039
		c0.043,0.013,0.084,0.027,0.129,0.035c0.008,0.002,0.018,0.002,0.025,0.002c0.008,0.002,0.016,0.006,0.021,0.006
		c0.068,0.012,0.139,0.016,0.205,0.016c0.002,0,0.004,0.001,0.006,0.001h0.002l0,0c0.006,0,0.008-0.002,0.012-0.002
		c0.164-0.001,0.324-0.032,0.479-0.087c0.055-0.021,0.104-0.053,0.154-0.075c0.072-0.035,0.148-0.062,0.217-0.104l4.055-2.84
		c0.678-0.479,0.844-1.41,0.367-2.091s-1.41-0.845-2.09-0.366l-1.223,0.854l1.111-7.814l0.66,0.941
		c0.291,0.417,0.756,0.641,1.23,0.641c0.297,0,0.596-0.088,0.857-0.271c0.68-0.475,0.844-1.41,0.369-2.089L13.995,6.637z"/>
</g>
</svg>
