<?xml version="1.0" encoding="utf-8"?>
<!-- Generator: Adobe Illustrator 14.0.0, SVG Export Plug-In . SVG Version: 6.00 Build 43363)  -->
<!DOCTYPE svg PUBLIC "-//W3C//DTD SVG 1.1//EN" "http://www.w3.org/Graphics/SVG/1.1/DTD/svg11.dtd">
<svg version="1.1" id="Calque_1" xmlns="http://www.w3.org/2000/svg" xmlns:xlink="http://www.w3.org/1999/xlink" x="0px" y="0px"
	 width="40px" height="40px" viewBox="0 0 40 40" enable-background="new 0 0 40 40" xml:space="preserve">
<path d="M39,20C39,9.523,30.477,1,20,1C9.523,1,1,9.523,1,20c0,6.346,3.139,11.96,7.933,15.413c0.096,0.097,0.208,0.176,0.327,0.244
	C12.317,37.762,16.016,39,20,39c3.984,0,7.682-1.238,10.74-3.343c0.119-0.068,0.23-0.147,0.326-0.245C35.861,31.96,39,26.346,39,20z
	 M4,20c0-8.822,7.178-16,16-16c8.822,0,16,7.178,16,16c0,4.503-1.877,8.568-4.88,11.479c-0.884-3.405-3.285-6.201-6.444-7.614
	c1.127-1.171,1.824-2.757,1.824-4.504c0-3.584-2.916-6.5-6.5-6.5s-6.5,2.916-6.5,6.5c0,1.748,0.697,3.333,1.824,4.504
	c-3.16,1.413-5.561,4.209-6.444,7.614C5.876,28.568,4,24.503,4,20z M16.5,19.36c0-1.93,1.57-3.5,3.5-3.5c1.93,0,3.5,1.57,3.5,3.5
	c0,1.93-1.57,3.5-3.5,3.5C18.07,22.859,16.5,21.29,16.5,19.36z M11.541,33.557c0.406-4.312,4.044-7.697,8.459-7.697
	s8.052,3.386,8.459,7.695C26.001,35.096,23.107,36,20,36C16.893,36,13.998,35.096,11.541,33.557z"/>
</svg>
