<?xml version="1.0" encoding="utf-8"?>
<!-- Generator: Adobe Illustrator 14.0.0, SVG Export Plug-In . SVG Version: 6.00 Build 43363)  -->
<!DOCTYPE svg PUBLIC "-//W3C//DTD SVG 1.1//EN" "http://www.w3.org/Graphics/SVG/1.1/DTD/svg11.dtd">
<svg version="1.1" id="Calque_1" xmlns="http://www.w3.org/2000/svg" xmlns:xlink="http://www.w3.org/1999/xlink" x="0px" y="0px"
	 width="30px" height="30px" viewBox="0 0 30 30" enable-background="new 0 0 30 30" xml:space="preserve">
<g>
	<g>
		<path d="M17.461,17.648l-0.939,0.939V18.21c0-0.828-0.67-1.5-1.499-1.5s-1.5,0.672-1.5,1.5v0.379l-0.939-0.938
			c-0.586-0.586-1.536-0.586-2.121,0c-0.586,0.586-0.586,1.535,0,2.121l3.5,3.5c0.14,0.139,0.307,0.25,0.49,0.326
			c0.008,0.002,0.016,0.004,0.023,0.006c0.17,0.066,0.354,0.106,0.547,0.106c0.192,0,0.377-0.04,0.546-0.106
			c0.009-0.002,0.017-0.004,0.023-0.006c0.186-0.076,0.352-0.188,0.49-0.328l3.5-3.498c0.586-0.586,0.586-1.535,0-2.121
			S18.047,17.062,17.461,17.648z"/>
		<path d="M12.583,11.771l0.939-0.939v1.879c0,0.828,0.672,1.5,1.5,1.5c0.827,0,1.499-0.672,1.499-1.5v-1.879l0.939,0.939
			c0.293,0.293,0.678,0.439,1.061,0.439c0.386,0,0.769-0.146,1.062-0.439c0.586-0.586,0.586-1.535,0-2.121l-3.5-3.499
			c-0.138-0.14-0.306-0.251-0.49-0.327c-0.008-0.003-0.016-0.004-0.022-0.007c-0.17-0.066-0.354-0.106-0.547-0.106
			c-0.193,0-0.377,0.04-0.547,0.106c-0.009,0.003-0.017,0.004-0.023,0.007c-0.186,0.076-0.352,0.188-0.49,0.326l-3.5,3.5
			c-0.586,0.586-0.586,1.535,0,2.121C11.046,12.356,11.997,12.356,12.583,11.771z"/>
	</g>
	<g>
		<path d="M15.022,28.71c-1.494,0-2.964-0.233-4.37-0.696c-0.787-0.259-1.215-1.105-0.956-1.893
			c0.258-0.788,1.105-1.221,1.893-0.957c2.188,0.719,4.615,0.727,6.812,0.018c0.787-0.252,1.634,0.18,1.888,0.969
			c0.254,0.787-0.179,1.634-0.968,1.888C17.934,28.482,16.488,28.71,15.022,28.71L15.022,28.71z M25.127,23.568
			c-0.307,0-0.617-0.094-0.883-0.289c-0.67-0.487-0.816-1.426-0.328-2.096c1.377-1.889,2.105-4.127,2.105-6.474
			c0-0.828,0.672-1.5,1.5-1.5s1.5,0.672,1.5,1.5c0,2.986-0.929,5.836-2.683,8.242C26.045,23.354,25.59,23.568,25.127,23.568
			L25.127,23.568z M4.874,23.51c-0.463,0-0.919-0.214-1.213-0.615c-1.755-2.405-2.683-5.256-2.683-8.242c0-0.828,0.672-1.5,1.5-1.5
			c0.829,0,1.5,0.672,1.5,1.5c0,2.347,0.729,4.586,2.105,6.475c0.488,0.669,0.342,1.607-0.328,2.096
			C5.49,23.416,5.181,23.51,4.874,23.51L4.874,23.51z M25.205,8.958c-0.469,0-0.93-0.219-1.223-0.629
			c-1.344-1.885-3.289-3.325-5.474-4.055C17.725,4.01,17.3,3.162,17.562,2.375c0.264-0.786,1.11-1.21,1.897-0.947
			c2.779,0.93,5.254,2.762,6.965,5.158c0.479,0.674,0.324,1.61-0.35,2.092C25.811,8.867,25.508,8.958,25.205,8.958L25.205,8.958z
			 M4.954,8.799c-0.31,0-0.621-0.095-0.89-0.293c-0.667-0.491-0.81-1.431-0.316-2.098c1.748-2.37,4.25-4.163,7.045-5.048
			c0.789-0.251,1.633,0.188,1.883,0.977c0.251,0.79-0.187,1.633-0.977,1.883C9.503,4.917,7.537,6.326,6.162,8.19
			C5.868,8.588,5.414,8.799,4.954,8.799L4.954,8.799z"/>
	</g>
</g>
</svg>
