<?xml version="1.0" encoding="utf-8"?>
<!-- Generator: Adobe Illustrator 14.0.0, SVG Export Plug-In . SVG Version: 6.00 Build 43363)  -->
<!DOCTYPE svg PUBLIC "-//W3C//DTD SVG 1.1//EN" "http://www.w3.org/Graphics/SVG/1.1/DTD/svg11.dtd">
<svg version="1.1" id="Calque_1" xmlns="http://www.w3.org/2000/svg" xmlns:xlink="http://www.w3.org/1999/xlink" x="0px" y="0px"
	 width="30px" height="30px" viewBox="0 0 30 30" enable-background="new 0 0 30 30" xml:space="preserve">
<g>
	<path fill="#1A171B" d="M19.562,10.439c-0.586-0.586-1.535-0.586-2.121,0l-2.439,2.439l-2.439-2.439
		c-0.585-0.586-1.535-0.586-2.121,0s-0.586,1.535,0,2.121L12.88,15l-2.439,2.439c-0.586,0.586-0.586,1.535,0,2.121
		C10.733,19.854,11.117,20,11.501,20s0.768-0.146,1.061-0.439l2.439-2.439l2.439,2.439C17.733,19.854,18.117,20,18.501,20
		s0.768-0.146,1.061-0.439c0.586-0.586,0.586-1.535,0-2.121L17.122,15l2.439-2.439C20.147,11.975,20.147,11.025,19.562,10.439z"/>
	<path fill="#1A171B" d="M15,3.5C8.659,3.5,3.5,8.659,3.5,15S8.659,26.5,15,26.5S26.5,21.341,26.5,15S21.341,3.5,15,3.5z M15,23.5
		c-4.687,0-8.5-3.813-8.5-8.5s3.813-8.5,8.5-8.5c4.688,0,8.5,3.813,8.5,8.5S19.688,23.5,15,23.5z"/>
</g>
</svg>
