<?xml version="1.0" encoding="utf-8"?>
<!-- Generator: Adobe Illustrator 14.0.0, SVG Export Plug-In . SVG Version: 6.00 Build 43363)  -->
<!DOCTYPE svg PUBLIC "-//W3C//DTD SVG 1.1//EN" "http://www.w3.org/Graphics/SVG/1.1/DTD/svg11.dtd">
<svg version="1.1" id="Calque_1" xmlns="http://www.w3.org/2000/svg" xmlns:xlink="http://www.w3.org/1999/xlink" x="0px" y="0px"
	 width="30px" height="30px" viewBox="0 0 30 30" enable-background="new 0 0 30 30" xml:space="preserve">
<path fill="#1A171B" d="M23.061,20.939l-4.535-4.534C19.139,15.414,19.5,14.25,19.5,13c0-3.584-2.916-6.5-6.5-6.5
	c-3.584,0-6.5,2.916-6.5,6.5s2.916,6.5,6.5,6.5c1.249,0,2.413-0.36,3.404-0.974l4.535,4.534C21.232,23.354,21.616,23.5,22,23.5
	s0.768-0.146,1.061-0.439C23.646,22.475,23.646,21.525,23.061,20.939z M9.5,13c0-1.93,1.57-3.5,3.5-3.5c1.93,0,3.5,1.57,3.5,3.5
	s-1.57,3.5-3.5,3.5C11.07,16.5,9.5,14.93,9.5,13z"/>
</svg>
