<?xml version="1.0" encoding="utf-8"?>
<!-- Generator: Adobe Illustrator 14.0.0, SVG Export Plug-In . SVG Version: 6.00 Build 43363)  -->
<!DOCTYPE svg PUBLIC "-//W3C//DTD SVG 1.1//EN" "http://www.w3.org/Graphics/SVG/1.1/DTD/svg11.dtd">
<svg version="1.1" id="Calque_1" xmlns="http://www.w3.org/2000/svg" xmlns:xlink="http://www.w3.org/1999/xlink" x="0px" y="0px"
	 width="30px" height="30px" viewBox="0 0 30 30" enable-background="new 0 0 30 30" xml:space="preserve">
<g>
	<path d="M15,13c0.828,0,1.5-0.672,1.5-1.5v-4C16.5,6.673,15.828,6,15,6c-0.83,0-1.5,0.673-1.5,1.5v4C13.5,12.328,14.17,13,15,13z"
		/>
	<path d="M17.439,17.939L16.5,18.877V17c0-0.827-0.672-1.5-1.499-1.5c-0.83,0-1.5,0.673-1.5,1.5v1.879l-0.939-0.938
		c-0.586-0.586-1.534-0.586-2.121,0c-0.586,0.586-0.586,1.535,0,2.121l3.5,3.5c0.14,0.139,0.308,0.25,0.492,0.323
		c0.008,0.005,0.017,0.007,0.021,0.009C14.623,23.96,14.809,24,15,24c0.193,0,0.377-0.04,0.547-0.105
		c0.01-0.002,0.018-0.004,0.023-0.008c0.186-0.074,0.352-0.188,0.49-0.326l3.5-3.498c0.586-0.586,0.586-1.535,0-2.121
		S18.023,17.354,17.439,17.939z"/>
	<path d="M15,1C7.279,1,1,7.28,1,15c0,7.721,6.279,14,14,14s14-6.279,14-14C29,7.28,22.721,1,15,1z M15,26C8.936,26,4,21.064,4,15
		C4,8.936,8.936,4,15,4c6.063,0,11,4.936,11,11C26,21.064,21.064,26,15,26z"/>
</g>
</svg>
