<?xml version="1.0" encoding="utf-8"?>
<!-- Generator: Adobe Illustrator 14.0.0, SVG Export Plug-In . SVG Version: 6.00 Build 43363)  -->
<!DOCTYPE svg PUBLIC "-//W3C//DTD SVG 1.1//EN" "http://www.w3.org/Graphics/SVG/1.1/DTD/svg11.dtd">
<svg version="1.1" id="Calque_1" xmlns="http://www.w3.org/2000/svg" xmlns:xlink="http://www.w3.org/1999/xlink" x="0px" y="0px"
	 width="30px" height="30px" viewBox="0 0 30 30" enable-background="new 0 0 30 30" xml:space="preserve">
<path fill="#1A171B" d="M25,6H15H5C4.172,6,3.5,6.673,3.5,7.5v5v5v5C3.5,23.328,4.172,24,5,24h10h10c0.828,0,1.5-0.672,1.5-1.5v-5
	v-5v-5C26.5,6.673,25.828,6,25,6z M6.5,14h7v2h-7V14z M16.5,14h7v2h-7V14z M23.5,11h-7V9h7V11z M6.5,9h7v2h-7V9z M6.5,19h7v2h-7V19z
	 M23.5,21h-7v-2h7V21z"/>
</svg>
