<?xml version="1.0" encoding="utf-8"?>
<!-- Generator: Adobe Illustrator 14.0.0, SVG Export Plug-In . SVG Version: 6.00 Build 43363)  -->
<!DOCTYPE svg PUBLIC "-//W3C//DTD SVG 1.1//EN" "http://www.w3.org/Graphics/SVG/1.1/DTD/svg11.dtd">
<svg version="1.1" id="Calque_1" xmlns="http://www.w3.org/2000/svg" xmlns:xlink="http://www.w3.org/1999/xlink" x="0px" y="0px"
	 width="30px" height="30px" viewBox="0 0 30 30" enable-background="new 0 0 30 30" xml:space="preserve">
<g>
	<path d="M24.506,9.94l-3.5-3.5C20.734,6.168,20.359,6,19.945,6s-0.789,0.168-1.062,0.439l-3.5,3.5
		c-0.586,0.586-0.586,1.535,0,2.121c0.587,0.586,1.535,0.586,2.121,0l0.938-0.938V22.5c0,0.828,0.672,1.5,1.5,1.5s1.5-0.672,1.5-1.5
		V11.122l0.938,0.938c0.293,0.293,0.677,0.438,1.062,0.438c0.383,0,0.77-0.146,1.061-0.438C25.092,11.476,25.092,10.526,24.506,9.94
		z"/>
	<path d="M13.971,13.476c-0.684-0.684-1.023-1.578-1.023-2.476H6.445V9h7.146c0.111-0.166,0.23-0.327,0.379-0.475l2.059-2.059
		C15.756,6.182,15.371,6,14.945,6h-10c-0.828,0-1.5,0.673-1.5,1.5v5v5v5c0,0.828,0.672,1.5,1.5,1.5h10c0.829,0,1.5-0.672,1.5-1.5v-5
		v-3.033C15.537,14.467,14.633,14.137,13.971,13.476z M13.445,21h-7v-2h7V21z M13.445,16h-7v-2h7V16z"/>
</g>
</svg>
