<?xml version="1.0" encoding="utf-8"?>
<!-- Generator: Adobe Illustrator 14.0.0, SVG Export Plug-In . SVG Version: 6.00 Build 43363)  -->
<!DOCTYPE svg PUBLIC "-//W3C//DTD SVG 1.1//EN" "http://www.w3.org/Graphics/SVG/1.1/DTD/svg11.dtd">
<svg version="1.1" id="Calque_1" xmlns="http://www.w3.org/2000/svg" xmlns:xlink="http://www.w3.org/1999/xlink" x="0px" y="0px"
	 width="30px" height="30px" viewBox="0 0 30 30" enable-background="new 0 0 30 30" xml:space="preserve">
<path fill="#1A171B" d="M24.314,12.767c-0.176-0.543-0.646-0.938-1.211-1.021l-4.67-0.68l-2.088-4.229C16.092,6.324,15.572,6,15,6
	c-0.57,0-1.092,0.324-1.344,0.837l-2.09,4.229l-4.668,0.68c-0.564,0.082-1.035,0.479-1.211,1.021
	c-0.178,0.543-0.029,1.139,0.379,1.537l3.379,3.293l-0.797,4.646c-0.098,0.562,0.135,1.133,0.598,1.469
	c0.461,0.335,1.074,0.384,1.578,0.112l4.178-2.193l4.176,2.194C19.398,23.943,19.637,24,19.875,24c0.312,0,0.621-0.098,0.883-0.285
	c0.461-0.336,0.693-0.904,0.598-1.469l-0.799-4.648l3.379-3.292C24.344,13.906,24.49,13.31,24.314,12.767z"/>
</svg>
