<?xml version="1.0" encoding="utf-8"?>
<!-- Generator: Adobe Illustrator 14.0.0, SVG Export Plug-In . SVG Version: 6.00 Build 43363)  -->
<!DOCTYPE svg PUBLIC "-//W3C//DTD SVG 1.1//EN" "http://www.w3.org/Graphics/SVG/1.1/DTD/svg11.dtd">
<svg version="1.1" id="Calque_1" xmlns="http://www.w3.org/2000/svg" xmlns:xlink="http://www.w3.org/1999/xlink" x="0px" y="0px"
	 width="30px" height="30px" viewBox="0 0 30 30" enable-background="new 0 0 30 30" xml:space="preserve">
<g>
	<path d="M15.57,19.889c0.186-0.076,0.354-0.188,0.49-0.328l3.5-3.498c0.586-0.585,0.586-1.536,0-2.122s-1.535-0.586-2.121,0
		L16.5,14.88V7.5c0-0.827-0.672-1.5-1.499-1.5c-0.828,0-1.5,0.673-1.5,1.5v7.38l-0.938-0.939c-0.586-0.586-1.536-0.586-2.12,0
		c-0.587,0.586-0.587,1.535,0,2.122l3.5,3.5c0.139,0.14,0.305,0.25,0.489,0.326c0.008,0.002,0.017,0.004,0.023,0.006
		C14.625,19.96,14.809,20,15.002,20s0.377-0.04,0.547-0.105C15.555,19.893,15.562,19.891,15.57,19.889z"/>
	<path d="M20,20h-5h-5c-0.83,0-1.5,0.673-1.5,1.5c0,0.828,0.67,1.5,1.5,1.5h10c0.828,0,1.5-0.672,1.5-1.5
		C21.5,20.673,20.828,20,20,20z"/>
	<path d="M15,1C7.279,1,1,7.28,1,15c0,7.721,6.279,14,14,14s14-6.279,14-14C29,7.28,22.721,1,15,1z M15,26C8.936,26,4,21.064,4,15
		C4,8.936,8.936,4,15,4c6.063,0,11,4.936,11,11C26,21.064,21.064,26,15,26z"/>
</g>
</svg>
