<?xml version="1.0" encoding="utf-8"?>
<!-- Generator: Adobe Illustrator 14.0.0, SVG Export Plug-In . SVG Version: 6.00 Build 43363)  -->
<!DOCTYPE svg PUBLIC "-//W3C//DTD SVG 1.1//EN" "http://www.w3.org/Graphics/SVG/1.1/DTD/svg11.dtd">
<svg version="1.1" id="Calque_1" xmlns="http://www.w3.org/2000/svg" xmlns:xlink="http://www.w3.org/1999/xlink" x="0px" y="0px"
	 width="30px" height="30px" viewBox="0 0 30 30" enable-background="new 0 0 30 30" xml:space="preserve">
<g>
	<path d="M14.506,17.939c-0.586-0.586-1.535-0.586-2.121,0l-0.939,0.938V7.5c0-0.827-0.672-1.5-1.5-1.5c-0.828,0-1.5,0.673-1.5,1.5
		v11.379l-0.938-0.939c-0.586-0.586-1.537-0.586-2.123,0c-0.586,0.586-0.586,1.535,0,2.121l3.5,3.5
		c0.068,0.07,0.145,0.131,0.225,0.187c0.027,0.019,0.057,0.028,0.082,0.045c0.059,0.033,0.115,0.067,0.178,0.094
		c0.033,0.017,0.07,0.021,0.105,0.033c0.057,0.021,0.113,0.041,0.174,0.054C9.746,23.99,9.846,24,9.945,24
		c0.102,0,0.199-0.01,0.297-0.029c0.062-0.012,0.117-0.033,0.176-0.053c0.035-0.012,0.07-0.02,0.105-0.033
		c0.062-0.025,0.119-0.061,0.178-0.096c0.025-0.016,0.055-0.025,0.078-0.043c0.082-0.055,0.158-0.115,0.229-0.186l3.5-3.5
		C15.092,19.475,15.092,18.525,14.506,17.939z"/>
	<path d="M24.945,6h-10c-0.828,0-1.5,0.673-1.5,1.5v5v3.034c0.906,0,1.812,0.33,2.475,0.991c0.682,0.683,1.023,1.578,1.021,2.476
		h6.504v2h-7.146c-0.111,0.166-0.232,0.328-0.379,0.476l-2.059,2.059C14.135,23.82,14.518,24,14.945,24h10
		c0.828,0,1.5-0.672,1.5-1.5v-5v-5v-5C26.445,6.672,25.773,6,24.945,6z M23.445,16h-7v-2h7V16z M23.445,11h-7V9h7V11z"/>
</g>
</svg>
