<?xml version="1.0" encoding="utf-8"?>
<!-- Generator: Adobe Illustrator 14.0.0, SVG Export Plug-In . SVG Version: 6.00 Build 43363)  -->
<!DOCTYPE svg PUBLIC "-//W3C//DTD SVG 1.1//EN" "http://www.w3.org/Graphics/SVG/1.1/DTD/svg11.dtd">
<svg version="1.1" id="Calque_1" xmlns="http://www.w3.org/2000/svg" xmlns:xlink="http://www.w3.org/1999/xlink" x="0px" y="0px"
	 width="30px" height="30px" viewBox="0 0 30 30" enable-background="new 0 0 30 30" xml:space="preserve">
<g>
	<path d="M15,17c-0.83,0-1.5,0.672-1.5,1.5v4c0,0.828,0.67,1.5,1.5,1.5c0.828,0,1.5-0.672,1.5-1.5v-4C16.5,17.672,15.828,17,15,17z"
		/>
	<path d="M16.061,6.441C15.922,6.3,15.754,6.19,15.57,6.114c-0.008-0.003-0.016-0.004-0.023-0.007
		C15.377,6.041,15.193,6.001,15,6.001s-0.377,0.04-0.547,0.106c-0.008,0.003-0.017,0.004-0.023,0.007
		c-0.186,0.076-0.352,0.188-0.49,0.326l-3.5,3.5c-0.586,0.586-0.586,1.535,0,2.121c0.584,0.586,1.535,0.586,2.121,0l0.938-0.939
		v1.879c0,0.828,0.672,1.5,1.5,1.5c0.827,0,1.499-0.672,1.499-1.5v-1.879l0.939,0.939c0.293,0.293,0.678,0.438,1.061,0.438
		c0.387,0,0.771-0.146,1.062-0.438c0.586-0.586,0.586-1.535,0-2.121L16.061,6.441z"/>
	<path d="M15,1C7.279,1,1,7.28,1,15c0,7.721,6.279,14,14,14s14-6.279,14-14C29,7.28,22.721,1,15,1z M15,26C8.936,26,4,21.064,4,15
		C4,8.936,8.936,4,15,4c6.063,0,11,4.936,11,11C26,21.064,21.064,26,15,26z"/>
</g>
</svg>
