<?xml version="1.0" encoding="UTF-8" standalone="no"?>
<!-- Created with Inkscape (http://www.inkscape.org/) -->

<svg
   xmlns:dc="http://purl.org/dc/elements/1.1/"
   xmlns:cc="http://creativecommons.org/ns#"
   xmlns:rdf="http://www.w3.org/1999/02/22-rdf-syntax-ns#"
   xmlns:svg="http://www.w3.org/2000/svg"
   xmlns="http://www.w3.org/2000/svg"
   xmlns:sodipodi="http://sodipodi.sourceforge.net/DTD/sodipodi-0.dtd"
   xmlns:inkscape="http://www.inkscape.org/namespaces/inkscape"
   width="16"
   height="16"
   id="svg3015"
   version="1.1"
   inkscape:version="0.48.5 r10040"
   sodipodi:docname="arboreTray.svg">
  <defs
     id="defs3017" />
  <sodipodi:namedview
     id="base"
     pagecolor="#ffffff"
     bordercolor="#666666"
     borderopacity="1.0"
     inkscape:pageopacity="0.0"
     inkscape:pageshadow="2"
     inkscape:zoom="14.205283"
     inkscape:cx="-17.289129"
     inkscape:cy="23.704191"
     inkscape:document-units="px"
     inkscape:current-layer="layer1"
     showgrid="false"
     fit-margin-top="0"
     fit-margin-left="0"
     fit-margin-right="0"
     fit-margin-bottom="0"
     inkscape:window-width="1918"
     inkscape:window-height="1049"
     inkscape:window-x="0"
     inkscape:window-y="19"
     inkscape:window-maximized="1" />
  <metadata
     id="metadata3020">
    <rdf:RDF>
      <cc:Work
         rdf:about="">
        <dc:format>image/svg+xml</dc:format>
        <dc:type
           rdf:resource="http://purl.org/dc/dcmitype/StillImage" />
        <dc:title />
      </cc:Work>
    </rdf:RDF>
  </metadata>
  <g
     inkscape:label="Layer 1"
     inkscape:groupmode="layer"
     id="layer1"
     transform="translate(-406.04642,-406.05265)">
    <path
       style="fill:#800080;fill-opacity:1;stroke:none"
       d="m 413.84024,421.78428 c -0.27232,-0.0414 -0.48235,-0.11339 -0.76374,-0.26204 -0.415,-0.21922 -1.87771,-1.05402 -3.70947,-2.11707 -1.34521,-0.78072 -1.50487,-0.88079 -1.68083,-1.0536 -0.23394,-0.22976 -0.38798,-0.46147 -0.50506,-0.75979 -0.0767,-0.1954 -0.0887,-0.26215 -0.0996,-0.55413 -0.0154,-0.41517 0.033,-0.65426 0.20061,-0.98903 0.13678,-0.27325 0.38324,-0.5591 0.62705,-0.72724 0.085,-0.0586 1.70895,-1.00932 3.60876,-2.11262 2.08853,-1.21291 3.45423,-2.02173 3.45423,-2.04576 0,-0.0391 -0.79154,-0.53087 -0.90121,-0.55993 -0.039,-0.0104 -0.28375,0.11725 -0.81831,0.42658 -1.58264,0.91577 -3.16991,1.82166 -3.35629,1.91549 -0.27481,0.13837 -0.49362,0.18885 -0.82083,0.18936 -0.89807,0.002 -1.63393,-0.53603 -1.93218,-1.41114 -0.0602,-0.17661 -0.0846,-0.68539 -0.0441,-0.91813 0.0602,-0.34583 0.27328,-0.75034 0.53552,-1.01674 0.22169,-0.22522 0.92868,-0.65109 4.07785,-2.45634 1.73996,-0.99743 1.7984,-1.02319 2.31988,-1.02319 0.37759,0 0.6373,0.0664 0.97813,0.25006 0.51336,0.27666 3.61061,2.06043 4.71503,2.71549 0.73874,0.43815 0.94651,0.65944 1.1929,1.27048 l 0.0954,0.23654 0,3.26339 0,3.26337 -0.0973,0.24313 c -0.13728,0.34316 -0.26898,0.55433 -0.47464,0.76105 -0.19592,0.19693 -0.44551,0.35253 -2.12846,1.32696 -2.7308,1.58111 -3.44766,1.98366 -3.65985,2.05514 -0.25376,0.0855 -0.59413,0.12302 -0.81351,0.0897 l 0,0 z m 1.47069,-5.00566 c 0.68383,-0.39255 1.35074,-0.77565 1.48201,-0.85132 l 0.23867,-0.13756 0,-0.56707 c 0,-0.38797 -0.009,-0.56707 -0.0294,-0.56707 -0.0456,0 -3.82084,2.17594 -3.88367,2.23847 -0.0167,0.0166 -0.007,0.0452 0.0273,0.079 0.07,0.0693 0.83302,0.51708 0.88318,0.51828 0.0213,3.9e-4 0.59817,-0.32025 1.282,-0.71282 l 0,0 z"
       id="path3771"
       inkscape:connector-curvature="0" />
  </g>
</svg>
