<?xml version="1.0" encoding="utf-8"?>
<!-- Arbore pre-logo may 2015  -->
<!DOCTYPE svg PUBLIC "-//W3C//DTD SVG 1.1//EN" "http://www.w3.org/Graphics/SVG/1.1/DTD/svg11.dtd">
<svg version="1.1" id="Calque_1" xmlns="http://www.w3.org/2000/svg" xmlns:xlink="http://www.w3.org/1999/xlink" x="0px" y="0px" width="350px" height="150px" viewBox="0 0 350 150" enable-background="new 0 0 350 150" xml:space="preserve">
    <g fill="none" stroke="#000000" stroke-width="9.9213" stroke-linecap="round" stroke-linejoin="round" stroke-miterlimit="3">
	<polyline points="283.402,82.066 271.148,89.148 258.889,82.081 258.881,67.926 271.133,60.841 283.396,67.91 258.889,82.081"/>
	<polyline points="66.598,67.934 78.852,60.851 91.111,67.92 91.119,82.075 78.867,89.159 66.604,82.091 91.111,67.92"/>
	<polygon points="209.438,67.92 209.443,82.077 197.189,89.159 184.93,82.091 184.922,67.936 197.174,60.851"/>
	<polyline points="110.971,89.159 110.963,67.936 123.215,60.851"/>
	<polyline points="229.293,89.159 229.285,67.936 241.537,60.851"/>
	<polyline points="140.549,46.7 140.564,82.091 152.824,89.159 165.078,82.077 165.072,67.92 152.809,60.851 140.557,67.936"/>
    </g>
</svg>
